<?xml version="1.0" encoding="UTF-8"?>
<svg width="108px" height="44px" viewBox="0 0 108 44" version="1.1" xmlns="http://www.w3.org/2000/svg" xmlns:xlink="http://www.w3.org/1999/xlink">
    <!-- Generator: sketchtool 54.1 (76490) - https://sketchapp.com -->
    <title>B279A6A7-603C-4547-B0B2-E8C022CE364F</title>
    <desc>Created with sketchtool.</desc>
    <g id="Desktop" stroke="none" stroke-width="1" fill="none" fill-rule="evenodd">
        <g id="00_00_Homepage" transform="translate(-180.000000, -59.000000)" fill-rule="nonzero">
            <g id="Menu" transform="translate(160.000000, 8.000000)">
                <g id="Group-8" transform="translate(0.000000, 51.000000)">
                    <g id="Logo" transform="translate(20.000000, 0.000000)">
                        <polygon id="Path" fill="#0058AB" points="107.540142 44 0 44 0 0 107.555556 0"></polygon>
                        <path d="M1.95555556,21.5111111 C1.95555556,32.1933723 23.6737426,41.0666667 53.7855067,41.0666667 C83.8972707,41.0666667 105.6,32.2089669 105.6,21.5111111 C105.6,10.8132554 83.8818129,1.95555556 53.7700489,1.95555556 C23.6582849,1.95555556 1.95555556,10.8288499 1.95555556,21.5111111 Z" id="Path" fill="#FBD914"></path>
                        <path d="M51.1038569,27.9761216 C51.4444592,28.4641078 51.8160253,28.9215949 52.249519,29.3333333 L40.5606691,29.3333333 C40.5606691,28.8758462 40.1271754,27.9456225 39.616272,27.2136431 C39.1053686,26.4816638 36.4424783,22.4710269 36.4424783,22.4710269 L36.4424783,27.9761216 C36.4424783,28.4336087 36.4424783,28.8758462 36.6747071,29.3333333 L26.9365792,29.3333333 C27.168808,28.8758462 27.168808,28.4336087 27.168808,27.9761216 L27.168808,14.8919906 C27.168808,14.4345035 27.168808,13.992266 26.9365792,13.5347789 L36.6747071,13.5347789 C36.4424783,13.992266 36.4424783,14.4345035 36.4424783,14.8919906 L36.4424783,20.5953298 C36.4424783,20.5953298 39.5543443,16.615192 40.2665126,15.6697187 C40.8083798,14.9682385 41.4741024,13.9770164 41.4741024,13.5195293 L51.6302422,13.5195293 C50.9335558,13.9770164 50.1594598,14.8004932 49.524701,15.5629717 C48.9673519,16.2339528 45.8090401,20.0310957 45.8090401,20.0310957 C45.8090401,20.0310957 50.4845801,27.076397 51.1038569,27.9761216 Z M54.1537952,14.8919906 L54.1537952,27.9761216 C54.1537952,28.4336087 54.1537952,28.8758462 53.9215664,29.3333333 L72.7166178,29.3333333 L72.7166178,24.9567068 C72.2521602,25.1854503 71.8031845,25.1854503 71.3387269,25.1854503 L63.4274656,25.1854503 L63.4274656,23.1115088 L71.0290885,23.1115088 L71.0290885,19.7871026 L63.4274656,19.7871026 L63.4274656,17.7131611 L71.3387269,17.7131611 C71.8031845,17.7131611 72.2521602,17.7131611 72.7166178,17.926655 L72.7166178,13.5500285 L53.9370483,13.5500285 C54.1537952,13.992266 54.1537952,14.4345035 54.1537952,14.8919906 Z M98.7726898,27.9761216 C98.927509,28.4793574 99.1907017,28.9368445 99.5313039,29.3333333 L89.3442003,29.3333333 C89.3906461,28.8758462 89.2203449,28.4336087 89.0345619,27.9761216 C89.0345619,27.9761216 88.8797427,27.6101319 88.6629958,27.076397 L88.5701043,26.8476534 L82.7024565,26.8476534 L82.6095649,27.076397 C82.6095649,27.076397 82.4392638,27.5186345 82.2844446,27.9761216 C82.1296254,28.4336087 81.9593243,28.8758462 82.021252,29.3333333 L73.9861353,29.3333333 C74.3112556,28.9368445 74.5589663,28.4793574 74.7137855,27.9761216 C74.9769782,27.2593918 79.1570967,15.9137118 79.5286628,14.8919906 C79.6989639,14.4345035 79.869265,13.992266 79.8073373,13.5347789 L93.3849815,13.5347789 C93.2611262,13.992266 93.5088369,14.4345035 93.679138,14.8919906 C94.081668,15.8984622 98.4320876,27.0916466 98.7726898,27.9761216 Z M87.2851049,23.5079976 C86.5419727,21.6018014 85.9381778,20.0158461 85.8607682,19.8481009 C85.7369129,19.5126103 85.6285394,19.1618702 85.5511298,18.8111301 C85.4892021,19.1618702 85.3808287,19.5126103 85.2724552,19.8481009 C85.2260095,20.0005966 84.6222146,21.6018014 83.9255282,23.5079976 L87.2851049,23.5079976 Z M22.3229669,13.5347789 L11.7333333,13.5347789 C11.9655621,13.992266 11.9655621,14.4345035 11.9655621,14.8919906 L11.9655621,27.9761216 C11.9655621,28.4336087 11.9655621,28.8758462 11.7333333,29.3333333 L22.3229669,29.3333333 C22.0907381,28.8758462 22.0907381,28.4336087 22.0907381,27.9761216 L22.0907381,14.8919906 C22.0907381,14.4345035 22.0907381,13.9770164 22.3229669,13.5347789 Z M95.5214865,14.7852436 C95.4750408,13.672025 96.3575103,12.7418013 97.4876904,12.7113021 C97.5341362,12.7113021 97.580582,12.7113021 97.6270277,12.7113021 C98.7726898,12.6960526 99.717087,13.5957772 99.7325689,14.7089958 C99.7325689,14.7394949 99.7325689,14.7547445 99.7325689,14.7852436 C99.7635327,15.9289614 98.8500994,16.8896843 97.6734735,16.9201834 C96.5123295,16.9506826 95.5369685,16.0509579 95.5060046,14.8919906 C95.5214865,14.8614915 95.5214865,14.8157428 95.5214865,14.7852436 Z M95.9394984,14.7852436 C95.9394984,15.7002178 96.6826306,16.4474468 97.6270277,16.4626963 C98.5559429,16.4626963 99.314557,15.730717 99.330039,14.8004932 C99.330039,13.885519 98.5869068,13.1382901 97.6425096,13.1230405 L97.6425096,13.1230405 C96.7445583,13.0925414 95.9859442,13.778772 95.9549803,14.6632471 C95.9394984,14.7089958 95.9394984,14.7394949 95.9394984,14.7852436 Z M97.2090159,16.0204588 L96.8374498,16.0204588 L96.8374498,13.5347789 L97.7818469,13.5347789 C98.2308226,13.5500285 98.5714249,13.9007686 98.5714249,14.3430061 C98.5714249,14.6479975 98.4011237,14.9224898 98.1224492,15.0749855 L98.6643164,16.0357084 L98.2463045,16.0357084 L97.7508831,15.1512333 L97.2090159,15.1512333 L97.2090159,16.0204588 L97.2090159,16.0204588 Z M97.2090159,14.7852436 L97.7199192,14.7852436 C97.96763,14.8004932 98.1843769,14.6174984 98.1843769,14.3735053 C98.1998588,14.1295121 98.0140757,13.9160182 97.766365,13.9160182 C97.7508831,13.9160182 97.7354012,13.9160182 97.7199192,13.9160182 L97.2090159,13.9160182 L97.2090159,14.7852436 Z" id="Shape" fill="#0058AB"></path>
                    </g>
                </g>
            </g>
        </g>
    </g>
</svg>