<svg xmlns="http://www.w3.org/2000/svg" width="216" height="25" viewBox="0 0 216 25">
    <path fill="#000" fill-rule="evenodd" d="M180.744 0v5.107h-2.44v1.74h2.44v14.332l.002.228.009.225.012.217.017.209.024.202.029.195.036.189.04.179.044.174.05.165.057.16.065.151.07.143.078.137.082.131.091.123.1.114.106.107.115.101.122.093.129.085.135.074.143.07.15.06.152.052.158.045.168.038.17.031.175.022.182.017.186.01.192.001h.11l.115-.003.115-.005.118-.01.122-.012.124-.015.127-.016.127-.02.129-.022.13-.023.134-.026.138-.027.14-.03.146-.03.148-.032.443-.106v-1.803l-.625.162-.132.031-.127.032-.122.028-.117.023-.113.022-.105.018-.101.016-.096.014-.097.011-.094.01-.094.007-.091.008-.091.003-.091.004h-.081l-.2-.01-.17-.025-.149-.04-.123-.053-.11-.064-.095-.077-.084-.094-.075-.116-.03-.063-.034-.08-.034-.095-.031-.111-.03-.123-.027-.137-.025-.15-.026-.163-.019-.176-.019-.187-.014-.2-.013-.214-.012-.223-.006-.239-.003-.25-.002-.263V6.847h3.508v-1.74h-3.508V0h-1.947zM37.531 4.684l-.21.004-.206.008-.202.01-.203.015-.2.016-.195.02-.196.022-.189.026-.19.03-.186.032-.185.036-.18.038-.18.042-.177.044-.176.048-.171.05-.168.055-.167.057-.165.062-.16.063-.16.066-.157.07-.155.074-.15.076-.147.08-.15.08-.142.087-.14.09-.138.09-.135.1-.133.096-.128.1-.126.107-.122.104-.118.11-.113.112-.112.112-.105.116-.104.118-.1.12-.096.125-.091.124-.088.13-.084.13-.077.13-.077.137-.072.137-.067.14-.064.141-.06.143-.057.147-.051.148-.048.15-.045.15-.04.157-.037.157-.031.159-.03.159-.022.162-.02.164-.017.167-.014.169-.028.555h1.862l.053-.603.032-.247.047-.238.053-.23.069-.224.077-.213.086-.207.098-.2.11-.191.118-.18.129-.178.14-.169.153-.164.163-.157.176-.15.188-.145.097-.066.097-.068.103-.064.104-.063.108-.06.108-.058.113-.058.112-.053.115-.05.118-.05.122-.047.124-.048.125-.041.13-.042.131-.04.134-.036.136-.035.137-.033.143-.03.144-.028.144-.025.151-.024.151-.022.153-.02.158-.015.158-.016.161-.012.165-.01.167-.01.17-.003.17-.003.173-.002.302.003.292.01.283.02.27.027.263.034.25.042.244.046.23.056.225.062.213.07.2.075.193.085.184.09.173.095.165.103.155.11.144.117.137.12.127.128.115.134.108.14.097.143.089.151.079.159.07.162.06.17.054.18.04.187.037.193.022.2.016.21.003.221v1.562l-.01.139-.03.112-.05.11-.073.11-.1.111-.128.111-.162.11-.196.107-.228.104-.26.1-.294.093-.325.084-.36.078-.387.071-.422.063-.457.055-.156.018-.153.016-.148.017-.147.018-.14.017-.138.016-.13.015-.131.017-.126.015-.118.016-.117.015-.113.012-.11.015-.103.013-.101.011-.098.014-.265.038-.26.04-.255.04-.25.044-.248.041-.238.045-.237.048-.232.046-.225.048-.222.052-.218.051-.212.055-.21.054-.2.057-.2.058-.194.057-.19.062-.186.063-.179.066-.176.064-.172.068-.165.068-.161.071-.158.073-.153.075-.15.076-.142.078-.139.08-.136.08-.128.085-.126.083-.123.089-.227.182-.215.19-.199.203-.187.21-.172.225-.154.232-.141.241-.127.252-.112.26-.096.27-.08.28-.066.286-.051.295-.036.305-.023.313-.006.32.006.307.02.3.032.291.046.287.06.28.074.273.088.266.1.26.11.252.13.243.14.237.155.232.167.22.182.213.194.206.204.197.11.096.11.094.111.088.114.086.116.085.12.079.119.08.124.072.123.072.127.07.129.064.129.06.132.06.137.057.136.053.14.051.138.045.143.045.144.04.146.037.146.037.15.03.154.03.154.024.153.023.158.019.16.016.161.013.161.01.165.009.167.005.165.001.168-.001.166-.004.164-.005.163-.006.163-.009.16-.01.16-.011.159-.015.158-.017.156-.018.154-.02.157-.021.153-.025.152-.027.151-.028.152-.03.147-.03.15-.032.144-.037.147-.038.145-.04.142-.04.143-.044.142-.045.14-.046.138-.051.138-.05.135-.053.136-.053.134-.058.134-.058.134-.063.257-.126.253-.134.245-.14.237-.146.234-.153.225-.16.218-.167.21-.174.207-.18.199-.185.189-.193.184-.2.018-.02.004.024.026.192.034.184.038.18.043.171.048.162.055.161.061.15.07.145.073.137.08.13.087.122.092.114.102.108.106.102.113.095.124.084.127.078.136.071.139.061.142.055.151.048.155.038.161.032.163.025.17.016.174.012.177.001h.053l.058-.001.064-.004.067-.005.072-.006.077-.009.082-.006.088-.013.082-.01.078-.009.074-.008.066-.008.064-.007.06-.006.055-.005.402-.037V22.91l-.417.015-.028.004-.022.001-.028.004-.022.006-.024.004-.019.003-.079.01-.09.008-.085.007-.074.008-.067.007-.056.001-.049.002h-.034l-.204-.007-.177-.023-.151-.036-.13-.052-.109-.06-.093-.07-.078-.083-.07-.106-.03-.055-.033-.07-.029-.085-.03-.098-.03-.11-.03-.124-.023-.135-.023-.148-.02-.16-.017-.17-.017-.183-.01-.194-.013-.205-.005-.215-.005-.227-.002-.24v-9.292l-.003-.204-.004-.197-.005-.188-.007-.18-.007-.178-.008-.17-.014-.161-.014-.154-.013-.15-.018-.143-.018-.138-.02-.129-.022-.124-.022-.116-.027-.107-.026-.106-.028-.105-.03-.1-.035-.103-.036-.098-.034-.1-.041-.095-.043-.096-.043-.095-.047-.093-.048-.092-.051-.091-.052-.088-.055-.088-.055-.088-.063-.086-.107-.144-.113-.136-.118-.134-.126-.127-.13-.124-.138-.12-.14-.114-.146-.11-.153-.107-.158-.1-.163-.097-.17-.092-.172-.088-.18-.083-.182-.076-.189-.073-.19-.073-.2-.063-.202-.06-.205-.057-.213-.052-.214-.046-.218-.043-.223-.038-.227-.032-.23-.028-.237-.025-.24-.02-.246-.014-.25-.012-.25-.007-.257-.001-.211.001zm-2.176 18.41l-.27-.011-.259-.022-.25-.028-.239-.036-.232-.045-.221-.055-.215-.06-.204-.067-.194-.076-.189-.085-.18-.09-.168-.1-.164-.105-.154-.115-.148-.123-.137-.13-.13-.135-.12-.14-.11-.15-.102-.155-.094-.163-.086-.17-.074-.177-.07-.184-.059-.194-.05-.2-.04-.209-.033-.217-.023-.225-.015-.233-.004-.24.005-.229.018-.218.027-.21.041-.204.052-.194.062-.187.072-.177.082-.172.095-.166.106-.159.117-.152.129-.146.14-.137.15-.136.166-.128.179-.124.09-.056.099-.058.104-.058.11-.058.115-.055.12-.058.128-.053.13-.054.136-.055.14-.053.146-.053.152-.05.156-.05.163-.05.166-.048.174-.05.177-.045.182-.048.187-.043.192-.045.198-.043.204-.041.208-.041.213-.04.218-.038.221-.038.228-.038.234-.037.239-.033.242-.035.249-.031.252-.033.082-.009.097-.01.103-.014.11-.012.12-.013.125-.017.136-.016.14-.017.44-.05.42-.054.396-.055.37-.056.347-.058.323-.06.302-.061.277-.066.252-.063.232-.071.211-.073.072-.028v2.083l-.002.274-.005.265-.007.255-.012.247-.013.238-.02.227-.02.22-.026.21-.025.2-.031.19-.033.18-.038.172-.037.163-.043.152-.045.14-.048.133-.05.131-.057.128-.06.125-.067.125-.068.122-.074.123-.08.119-.085.119-.09.12-.094.113-.098.115-.104.114-.108.11-.114.11-.12.11-.125.105-.124.1-.125.097-.134.095-.134.093-.137.09-.141.085-.144.084-.146.082-.15.077-.153.077-.158.072-.157.068-.164.068-.166.063-.167.061-.175.06-.175.058-.173.051-.177.05-.175.045-.177.041-.179.04-.178.033-.179.031-.182.027-.18.025-.182.02-.186.014-.183.014-.184.01-.189.005-.185.001-.277-.005zM75.717 4.721l-.27.013-.266.02-.26.025-.255.036-.25.042-.244.051-.242.058-.234.065-.231.074-.224.084-.22.09-.214.1-.21.105-.202.114-.198.123-.192.13-.187.137-.182.145-.175.15-.168.163-.162.169-.154.174-.151.184-.143.19-.075.111V5.107h-1.965v19.385h1.965V15.07l.001-.295.004-.288.008-.282.007-.276.012-.272.012-.266.017-.257.02-.256.022-.249.025-.24.026-.238.03-.232.03-.225.035-.222.037-.214.036-.208.043-.204.043-.197.047-.19.05-.186.05-.179.052-.175.055-.167.059-.164.06-.158.06-.15.065-.146.065-.14.069-.133.07-.128.073-.12.073-.116.076-.113.082-.108.083-.104.086-.103.09-.097.093-.096.098-.091.098-.088.103-.085.105-.08.11-.079.111-.074.115-.071.119-.07.125-.064.125-.063.13-.058.133-.056.137-.053.143-.048.144-.047.146-.043.153-.038.156-.038.16-.032.163-.03.168-.026.172-.021.172-.02.178-.015.184-.012.554-.026V4.714l-.659.007zm139.624 0l-.27.013-.264.02-.261.025-.256.036-.25.042-.245.051-.24.058-.235.065-.23.074-.227.084-.22.09-.213.1-.209.105-.203.114-.197.123-.192.13-.187.137-.182.145-.176.15-.168.163-.16.167-.156.176-.15.184-.142.19-.075.11V5.106h-1.966v19.385h1.966V15.07l.002-.295.001-.288.009-.282.007-.276.013-.272.012-.266.018-.257.017-.256.022-.249.024-.24.028-.238.027-.232.033-.225.036-.222.034-.214.041-.208.04-.204.043-.197.044-.19.052-.186.05-.179.051-.175.057-.167.058-.164.059-.158.061-.15.066-.146.065-.14.069-.133.07-.128.072-.12.074-.116.077-.113.08-.108.083-.104.086-.103.09-.097.094-.095.096-.092.101-.088.102-.085.104-.08.11-.079.112-.074.115-.071.12-.07.124-.064.127-.063.128-.058.134-.056.136-.053.14-.048.145-.047.15-.043.152-.038.156-.038.158-.032.164-.03.168-.026.171-.021.174-.02.177-.015.183-.012.553-.026V4.714l-.657.007zm-19.179 0l-.24.01-.237.011-.237.02-.232.025-.228.028-.227.035-.223.04-.22.045-.216.05-.216.059-.211.061-.21.068-.204.073-.203.078-.199.082-.196.09-.194.096-.19.1-.186.105-.182.111-.182.116-.177.122-.17.126-.17.133-.168.137-.163.14-.16.152-.158.152-.149.16-.151.163-.146.169-.142.174-.138.178-.132.18-.13.185-.124.188-.119.194-.113.194-.111.2-.105.202-.102.209-.097.21-.091.217-.088.217-.082.223-.08.225-.073.23-.069.232-.063.237-.06.24-.059.244-.048.246-.048.25-.043.257-.038.257-.032.261-.03.267-.024.268-.018.27-.016.278-.012.28-.007.281-.001.288.001.287.007.28.012.278.016.275.018.271.025.268.029.265.032.259.038.258.043.253.048.252.048.248.059.24.06.24.063.236.07.235.073.227.079.225.082.222.088.22.09.212.098.212.102.207.105.205.111.199.113.195.119.194.124.188.13.184.132.184.138.175.142.174.146.17.15.165.15.159.157.154.161.149.163.142.167.14.171.132.17.129.177.119.18.12.184.109.186.107.19.1.194.096.196.09.2.083.2.078.206.075.208.068.213.06.214.057.218.053.22.045.223.041.227.035.228.031.232.022.235.02.24.011.24.01.243.002.186-.002.183-.003.186-.01.182-.01.18-.015.179-.02.178-.02.177-.024.173-.03.176-.032.173-.033.168-.038.17-.043.167-.045.166-.046.165-.051.162-.056.164-.058.158-.062.16-.066.156-.068.157-.071.15-.076.153-.078.151-.083.148-.083.148-.089.146-.093.142-.094.143-.098.14-.1.14-.107.135-.106.136-.11.129-.112.128-.115.126-.116.122-.118.118-.122.117-.123.113-.126.112-.129.105-.13.106-.132.1-.134.1-.139.094-.137.092-.143.09-.142.085-.146.085-.147.079-.15.077-.153.074-.154.07-.157.069-.16.065-.16.062-.162.058-.166.055-.167.053-.167.05-.174.048-.174.156-.629h-1.935l-.166.545-.091.263-.096.255-.108.247-.115.24-.122.233-.133.224-.139.217-.146.21-.156.202-.165.194-.17.19-.18.18-.189.174-.196.168-.206.16-.1.076-.109.073-.106.073-.11.068-.109.068-.111.063-.112.063-.111.06-.117.056-.113.056-.117.051-.117.05-.118.048-.119.045-.12.043-.122.038-.122.04-.125.034-.125.033-.126.03-.129.028-.127.027-.13.021-.132.022-.13.018-.135.015-.137.015-.136.013-.137.007-.14.006-.138.004-.141.001-.187-.001-.18-.007-.177-.01-.177-.015-.175-.02-.17-.025-.17-.028-.165-.033-.165-.035-.163-.04-.16-.042-.154-.052-.155-.051-.153-.058-.15-.06-.148-.066-.146-.071-.144-.074-.141-.077-.14-.082-.137-.088-.135-.09-.134-.096-.132-.1-.127-.103-.13-.11-.125-.112-.125-.118-.12-.122-.119-.126-.118-.133-.117-.135-.111-.136-.11-.144-.105-.142-.101-.146-.1-.15-.094-.153-.093-.156-.086-.157-.087-.16-.08-.163-.077-.167-.074-.17-.07-.173-.067-.174-.065-.179-.059-.18-.054-.185-.054-.186-.05-.192-.046-.192-.041-.195-.038-.2-.034-.201-.031-.204-.028-.208-.024-.21-.02-.214-.017-.217-.012-.219-.009-.223-.007-.225V15.3h15.08v-1.055l-.002-.27-.006-.27-.01-.264-.016-.262-.02-.258-.025-.257-.03-.252-.03-.246-.036-.247-.043-.242-.045-.237-.048-.235-.056-.23-.059-.227-.063-.222-.067-.221-.072-.216-.078-.215-.08-.208-.084-.207-.091-.2-.095-.2-.1-.195-.102-.19-.107-.187-.113-.184-.117-.18-.122-.178-.125-.172-.13-.169-.135-.165-.139-.161-.144-.159-.148-.152-.149-.146-.154-.142-.157-.14-.161-.132-.165-.127-.168-.123-.172-.12-.175-.112-.179-.106-.18-.104-.184-.1-.19-.092-.19-.086-.195-.083-.199-.078-.199-.071-.204-.07-.208-.06-.211-.059-.213-.051-.217-.046-.221-.043-.221-.039-.227-.031-.23-.028-.234-.02-.233-.018-.239-.013-.24-.007-.246-.003-.244.003zm-6.27 8.744l.022-.212.026-.209.026-.207.033-.203.032-.2.038-.196.04-.196.042-.19.048-.189.05-.182.054-.182.056-.179.059-.174.063-.175.065-.167.069-.168.072-.164.074-.16.079-.156.079-.155.086-.15.086-.148.09-.146.093-.14.096-.142.102-.135.103-.133.105-.13.108-.13.113-.124.115-.122.117-.118.117-.113.121-.109.122-.106.126-.1.125-.102.129-.09.132-.09.132-.088.134-.081.137-.08.14-.074.14-.071.145-.067.144-.063.147-.057.152-.058.15-.05.155-.048.158-.043.16-.04.161-.038.165-.033.165-.028.17-.027.17-.021.175-.015.175-.015.179-.01.18-.005.185-.003.175.003.172.005.172.01.17.015.163.016.165.022.16.026.157.029.158.034.153.037.153.041.15.045.147.048.142.053.145.056.14.06.138.064.137.068.134.071.132.075.13.081.128.083.127.09.124.089.121.094.12.101.12.103.116.107.117.113.111.116.11.119.11.124.106.126.107.13.098.133.098.134.09.138.092.14.085.143.083.146.079.149.077.15.074.154.07.156.066.159.061.162.062.166.057.167.051.169.05.174.047.177.042.179.04.182.038.182.03.189.032.19.024.192.022.199.019.197.015.203.014.204.009.209.001.053h-12.97l.002-.043zm-21.77-8.744l-.29.012-.28.018-.279.026-.275.032-.27.04-.264.046-.262.053-.256.061-.252.07-.248.074-.24.084-.242.09-.232.1-.228.105-.223.111-.217.118-.214.126-.206.135-.2.14-.195.147-.186.152-.18.16-.173.168-.167.172-.161.18-.1.121V5.107h-1.964v19.385h1.964v-10.52l.002-.166.001-.164.004-.16.002-.156.003-.156.005-.15.004-.15.008-.144.005-.14.007-.14.009-.137.008-.132.009-.128.01-.13.01-.123.01-.121.015-.116.012-.114.012-.113.013-.107.016-.105.014-.1.015-.102.017-.094.017-.093.018-.088.018-.086.018-.083.018-.079.021-.076.02-.071.044-.144.046-.141.051-.138.052-.137.058-.134.062-.133.065-.127.07-.128.071-.125.076-.121.08-.121.083-.118.086-.116.09-.112.095-.111.1-.11.1-.107.102-.103.108-.1.109-.098.111-.091.117-.09.115-.086.12-.083.124-.077.125-.077.129-.072.132-.072.134-.063.137-.06.141-.06.144-.057.148-.053.151-.05.155-.044.158-.045.16-.038.162-.038.167-.031.17-.032.173-.025.177-.023.18-.018.183-.017.187-.013.19-.007.19-.008.198-.001.172.001.165.007.165.005.161.008.156.013.155.015.15.017.147.02.144.021.14.025.138.028.134.028.132.033.127.033.124.039.12.038.117.041.115.043.113.048.107.048.106.053.1.053.1.055.095.058.091.06.09.06.086.068.085.065.081.071.08.073.073.073.07.076.072.08.066.082.067.088.065.09.06.094.06.096.058.103.057.104.052.11.053.11.05.116.046.12.046.122.043.127.04.13.04.133.035.138.035.142.032.148.03.147.025.152.028.158.022.159.02.163.018.17.017.168.012.177.01.178.009.183.007.182.003.19.002.196v12.367h1.966V11.749l-.004-.21-.005-.212-.007-.207-.013-.205-.014-.204-.017-.197-.024-.195-.023-.192-.029-.189-.032-.185-.035-.184-.04-.179-.04-.177-.045-.174-.05-.169-.051-.165-.057-.166-.058-.159-.064-.159-.069-.152-.067-.153-.073-.147-.08-.144-.08-.14-.084-.14-.09-.134-.089-.129-.096-.128-.1-.124-.1-.12-.109-.116-.108-.116-.115-.11-.117-.106-.12-.1-.126-.102-.127-.092-.128-.093-.134-.09-.138-.084-.144-.083-.142-.078-.148-.072-.151-.07-.155-.068-.156-.061-.161-.06-.163-.058-.169-.053-.168-.05-.173-.046-.177-.041-.179-.038-.182-.037-.187-.033-.187-.028-.192-.025-.196-.021-.197-.018-.201-.015-.206-.012-.205-.01-.213-.005-.214-.001-.289.003zm-19.907 0l-.242.01-.239.011-.235.02-.23.025-.23.028-.225.035-.225.04-.22.045-.216.05-.216.059-.211.061-.208.068-.206.073-.203.078-.199.082-.196.09-.194.096-.189.1-.187.105-.182.111-.178.116-.179.122-.172.126-.171.133-.167.137-.161.14-.16.152-.158.152-.153.16-.149.163-.146.169-.14.174-.14.178-.132.18-.13.185-.122.188-.12.192-.114.196-.11.2-.106.204-.102.207-.097.21-.09.217-.089.217-.082.223-.08.225-.073.23-.067.232-.067.237-.06.239-.055.245-.05.246-.046.25-.043.257-.038.257-.034.261-.03.267-.024.268-.018.27-.016.278-.012.28-.007.281-.002.288.002.287.007.28.012.278.016.275.018.271.024.268.03.265.034.259.038.26.043.251.046.252.05.248.055.24.06.24.067.236.067.235.074.227.079.225.082.222.09.22.089.212.097.212.102.207.106.205.11.199.113.195.12.194.122.188.131.184.132.184.14.175.14.174.146.17.15.165.152.159.155.154.163.149.161.142.167.14.17.132.173.129.177.119.179.12.183.109.187.107.19.1.193.096.196.09.2.083.2.078.208.075.206.068.213.06.214.057.218.053.22.045.225.041.225.035.23.031.23.022.235.02.239.011.242.01.242.002.186-.002.185-.003.184-.01.182-.01.18-.015.18-.02.179-.02.175-.024.173-.03.176-.032.171-.033.172-.038.168-.043.168-.045.165-.046.165-.051.163-.056.162-.058.16-.062.159-.066.156-.068.155-.071.154-.076.151-.078.15-.083.15-.083.147-.089.144-.093.144-.094.143-.098.14-.1.138-.107.135-.106.136-.11.13-.112.13-.115.125-.116.12-.118.118-.122.119-.123.111-.126.112-.129.106-.13.105-.132.103-.134.098-.139.095-.137.092-.143.09-.142.085-.146.083-.147.08-.15.078-.153.074-.154.07-.157.069-.16.063-.16.062-.162.058-.166.057-.167.053-.167.05-.174.048-.174.156-.629h-1.935l-.166.545-.09.263-.097.255-.108.247-.116.24-.123.233-.132.224-.14.217-.145.21-.155.202-.163.194-.172.19-.182.18-.187.174-.197.168-.205.16-.103.076-.106.073-.108.073-.108.068-.11.068-.112.063-.11.063-.113.06-.115.057-.113.055-.117.051-.117.05-.12.048-.119.045-.118.043-.122.038-.122.04-.123.034-.128.033-.125.03-.129.028-.127.027-.132.021-.13.022-.133.018-.132.015-.137.015-.136.013-.137.007-.14.006-.14.004-.14.001-.185-.001-.182-.007-.176-.01-.177-.015-.174-.02-.171-.025-.17-.028-.167-.033-.161-.035-.165-.04-.158-.042-.156-.052-.155-.051-.153-.058-.15-.06-.148-.066-.146-.071-.145-.074-.14-.077-.14-.082-.137-.088-.135-.09-.134-.096-.132-.1-.13-.103-.128-.11-.124-.112-.123-.118-.12-.122-.122-.126-.117-.133-.115-.135-.113-.136-.11-.144-.105-.142-.101-.146-.1-.15-.094-.153-.093-.156-.086-.157-.086-.16-.08-.163-.078-.167-.074-.17-.07-.173-.067-.174-.063-.179-.06-.18-.056-.185-.053-.186-.05-.192-.046-.192-.041-.195-.038-.2-.032-.201-.033-.204-.028-.208-.024-.21-.02-.214-.016-.217-.013-.219-.009-.223-.007-.225-.002-.141h15.08v-1.325l-.007-.27-.01-.264-.015-.262-.02-.258-.025-.257-.027-.252-.033-.246-.036-.247-.043-.242-.045-.237-.05-.235-.053-.23-.058-.227-.065-.222-.069-.221-.072-.216-.076-.215-.082-.208-.084-.207-.09-.2-.096-.2-.1-.195-.1-.19-.109-.187-.113-.184-.115-.18-.122-.178-.125-.172-.13-.169-.136-.165-.138-.161-.144-.159-.148-.152-.15-.146-.153-.142-.158-.14-.162-.132-.165-.127-.168-.123-.17-.12-.175-.112-.179-.106-.18-.104-.184-.1-.19-.092-.19-.086-.195-.083-.197-.078-.203-.071-.202-.07-.206-.06-.213-.057-.213-.053-.217-.046-.221-.043-.223-.039-.227-.031-.228-.028-.232-.02-.235-.018-.237-.013-.242-.007-.246-.003-.242.003zm-6.272 8.744l.022-.212.026-.209.026-.207.033-.205.034-.197.036-.197.04-.196.044-.19.046-.189.052-.182.05-.182.058-.179.058-.177.062-.172.067-.167.069-.168.072-.164.076-.16.079-.156.079-.155.084-.15.086-.148.09-.146.095-.14.094-.142.103-.135.102-.133.104-.13.11-.13.112-.124.115-.122.115-.118.118-.113.122-.109.122-.106.126-.1.125-.102.13-.09.13-.09.133-.088.134-.081.137-.08.14-.074.14-.071.144-.067.146-.063.146-.057.151-.058.153-.05.153-.048.156-.043.162-.04.161-.038.165-.033.165-.028.17-.027.171-.021.172-.015.177-.015.179-.01.182-.005.182-.003.176.003.174.005.17.01.168.015.165.016.165.022.161.026.158.029.158.034.151.037.153.041.15.045.147.048.144.053.143.056.14.06.138.064.137.068.136.071.129.075.132.081.129.083.125.09.123.089.122.094.122.101.119.103.115.107.115.113.113.116.112.119.108.124.108.126.103.13.1.133.098.134.092.138.09.14.085.143.085.146.078.149.078.15.07.154.072.156.066.159.061.162.062.166.055.167.053.169.048.174.048.177.043.179.04.182.038.182.03.189.031.19.024.192.023.199.019.197.015.203.012.204.009.209.001.053h-12.97l.004-.043zM129.2 4.72l-.25.01-.248.011-.244.019-.242.023-.237.03-.235.036-.234.04-.226.045-.229.05-.22.057-.219.061-.216.068-.213.073-.211.078-.205.081-.202.09-.201.096-.196.097-.192.105-.19.112-.186.114-.184.123-.179.126-.175.132-.171.138-.169.142-.164.147-.162.153-.156.157-.155.164-.15.169-.147.172-.142.177-.136.179-.132.185-.129.19-.123.191-.117.197-.115.199-.108.204-.102.206-.101.212-.094.216-.091.218-.085.22-.08.227-.076.23-.072.232-.065.239-.062.241-.058.244-.052.246-.048.254-.043.253-.04.26-.034.263-.029.265-.026.27-.02.273-.017.277-.009.278-.009.285-.001.29.001.283.01.281.008.278.017.273.02.274.026.266.03.262.034.261.04.257.042.252.048.251.052.247.058.243.062.24.065.236.072.23.076.23.08.225.085.224.09.216.095.217.1.21.103.208.108.202.115.202.117.195.121.194.13.188.131.186.138.182.14.179.147.174.15.169.153.165.158.16.16.153.163.15.165.143.172.14.173.132.179.129.178.12.184.118.187.111.19.106.193.101.197.095.2.09.202.083.206.08.211.073.21.068.214.06.219.059.223.051.221.046.227.04.232.035.231.031.236.022.238.02.24.011.246.01.246.002.207-.002.203-.003.203-.012.199-.011.197-.015.196-.02.194-.025.19-.026.188-.028.189-.035.183-.038.184-.043.18-.043.179-.048.177-.055.171-.055.172-.06.17-.064.167-.066.163-.07.163-.074.16-.078.158-.081.154-.086.153-.088.15-.093.15-.094.145-.101.142-.103.14-.106.138-.11.136-.115.134-.116.129-.117.127-.124.121-.125.12-.127.116-.13.115-.132.106-.135.107-.138.1-.14.1-.143.095-.146.09-.147.089-.15.084-.155.08-.154.076-.157.074-.162.068-.16.067-.166.064-.17.058-.168.057-.172.05-.174.05-.177.044-.18.041-.181.038-.186.036-.185.03-.187.027-.19.074-.605h-1.89l-.066.469-.024.144-.026.144-.029.14-.03.138-.035.136-.036.137-.04.132-.04.13-.046.13-.048.126-.05.124-.053.125-.055.12-.056.12-.06.117-.062.118-.065.114-.07.11-.07.112-.072.11-.077.107-.077.104-.083.103-.082.1-.087.1-.088.1-.093.095-.092.096-.097.093-.1.09-.104.089-.103.09-.106.084-.109.08-.106.08-.11.077-.11.07-.113.072-.115.07-.115.062-.117.062-.117.061-.12.056-.12.053-.124.05-.123.05-.126.044-.127.043-.128.042-.13.036-.131.035-.134.033-.134.028-.136.027-.137.023-.143.021-.14.019-.141.016-.145.01-.147.01-.146.007-.15.005-.149.001-.204-.001-.198-.007-.195-.01-.193-.016-.189-.02-.185-.024-.185-.03-.18-.03-.178-.039-.176-.04-.17-.044-.17-.05-.165-.055-.165-.058-.16-.06-.158-.067-.154-.071-.151-.075-.151-.08-.146-.084-.146-.086-.141-.092-.14-.097-.136-.1-.134-.106-.133-.11-.128-.114-.13-.118-.123-.124-.122-.126-.118-.132-.119-.137-.113-.141-.11-.144-.106-.146-.103-.15-.102-.155-.096-.155-.092-.16-.088-.165-.086-.167-.082-.17-.08-.173-.075-.177-.07-.182-.069-.185-.063-.188-.06-.19-.057-.194-.055-.198-.05-.2-.045-.208-.04-.208-.042-.21-.034-.216-.033-.22-.026-.22-.027-.227-.019-.23-.015-.235-.016-.235-.008-.24-.006-.244-.001-.247.001-.248.006-.245.008-.242.016-.238.015-.234.019-.23.027-.228.026-.222.033-.22.034-.217.041-.212.041-.21.045-.206.05-.202.055-.198.057-.194.06-.192.063-.189.069-.184.07-.18.076-.179.079-.174.082-.17.086-.17.088-.161.092-.161.098-.157.1-.154.103-.151.106-.146.112-.144.111-.142.119-.136.118-.13.122-.128.124-.123.129-.119.128-.114.133-.11.134-.104.137-.102.139-.096.14-.093.147-.086.146-.085.15-.08.152-.074.154-.07.158-.067.16-.061.165-.058.165-.053.17-.052.171-.044.175-.04.176-.038.182-.032.185-.028.185-.025.19-.02.192-.014.195-.01.198-.007.202-.003.289.005.28.015.274.024.266.034.263.044.256.053.249.063.242.071.237.08.232.09.223.102.218.11.215.117.207.13.203.136.196.15.189.153.178.164.17.17.162.176.15.182.143.187.132.2.124.2.117.21.106.218.098.222.088.232.079.238.07.247.062.255.111.566h1.961l-.093-.599-.029-.174-.034-.177-.038-.17-.04-.168-.044-.167-.045-.166-.053-.16-.051-.16-.057-.158-.062-.154-.062-.154-.065-.15-.07-.15-.07-.145-.078-.141-.079-.143-.082-.139-.088-.135-.088-.135-.092-.13-.096-.13-.1-.125-.101-.124-.103-.121-.11-.12-.112-.115-.115-.116-.117-.11-.123-.109-.122-.106-.127-.103-.132-.1-.133-.1-.132-.093-.137-.089-.14-.09-.142-.085-.142-.082-.146-.077-.15-.075-.147-.073-.153-.068-.154-.064-.158-.063-.16-.058-.161-.056-.162-.053-.166-.048-.167-.047-.17-.043-.172-.04-.171-.034-.177-.035-.177-.028-.18-.028-.184-.024-.184-.02-.183-.016-.191-.015-.189-.011-.192-.009-.194-.005-.198-.001-.252.003zm-43.056 0l-.25.01-.248.011-.244.019-.242.023-.238.03-.234.036-.232.04-.23.045-.223.05-.225.057-.22.061-.214.068-.211.073-.212.078-.206.081-.204.09-.199.096-.196.097-.194.105-.187.112-.187.114-.182.123-.179.126-.176.132-.172.138-.168.142-.165.147-.162.153-.158.157-.154.164-.15.169-.145.172-.141.177-.138.179-.134.185-.127.19-.121.191-.117.197-.115.199-.108.204-.105.206-.098.212-.096.216-.09.218-.084.22-.082.227-.074.23-.072.232-.067.239-.062.241-.056.244-.054.246-.05.254-.04.253-.04.26-.033.263-.029.265-.026.27-.02.273-.016.277-.013.278-.006.285-.001.29.001.286.006.285.013.28.016.278.02.273.026.268.03.268.032.26.04.26.04.255.05.252.054.248.056.244.062.24.067.238.072.232.074.23.082.227.085.22.089.219.096.215.098.21.105.207.108.205.115.2.117.196.121.192.127.189.134.184.138.18.14.176.146.174.15.167.154.165.158.158.162.152.165.149.168.142.172.138.176.13.179.126.182.121.187.118.187.11.194.103.196.101.2.093.203.09.206.084.212.078.21.073.215.066.22.061.225.056.223.053.23.043.232.04.234.037.24.03.24.023.244.018.25.011.248.01.254.002.253-.002.252-.01.246-.011.245-.018.24-.024.24-.03.236-.036.232-.04.23-.043.223-.053.223-.056.22-.061.218-.068.213-.073.21-.078.206-.084.206-.088.199-.094.197-.1.193-.106.188-.109.19-.116.181-.122.18-.126.176-.133.175-.139.166-.14.167-.15.163-.152.16-.159.154-.164.151-.168.146-.174.143-.176.139-.182.132-.184.13-.188.124-.194.119-.197.115-.199.108-.204.106-.208.102-.21.092-.214.093-.22.086-.224.08-.225.078-.228.07-.234.069-.237.062-.24.056-.243.054-.248.048-.252.044-.253.038-.259.036-.263.028-.265.025-.268.023-.273.013-.275.012-.278.007-.285.004-.287-.004-.29-.007-.284-.012-.278-.013-.277-.023-.273-.025-.27-.028-.266-.036-.262-.038-.26-.044-.255-.048-.252-.054-.248-.056-.243-.062-.242-.069-.237-.07-.233-.078-.229-.08-.227-.086-.22-.093-.22-.092-.215-.102-.21-.106-.207-.108-.204-.115-.202-.119-.194-.124-.194-.13-.187-.132-.185-.14-.179-.142-.179-.146-.174-.15-.167-.157-.164-.158-.155-.163-.154-.167-.148-.168-.142-.173-.138-.175-.13-.18-.126-.183-.123-.189-.116-.188-.11-.195-.105-.195-.097-.2-.097-.205-.089-.206-.081-.212-.078-.213-.073-.216-.068-.22-.06-.223-.059-.223-.05-.23-.044-.232-.04-.237-.036-.239-.03-.24-.023-.245-.019-.246-.011-.252-.01-.253-.003-.254.003zm.053 18.52l-.199-.006-.195-.01-.193-.016-.187-.02-.187-.024-.182-.03-.182-.03-.177-.039-.175-.04-.173-.044-.169-.05-.166-.055-.163-.058-.16-.06-.158-.067-.155-.071-.154-.075-.148-.08-.147-.084-.145-.086-.14-.092-.143-.097-.134-.1-.135-.106-.133-.11-.128-.114-.13-.12-.123-.122-.122-.126-.118-.132-.117-.137-.115-.141-.112-.144-.106-.146-.105-.15-.1-.155-.094-.155-.092-.16-.091-.165-.085-.167-.082-.17-.079-.173-.074-.177-.072-.182-.067-.185-.065-.188-.06-.19-.057-.194L79.85 18l-.05-.2-.046-.208-.043-.208-.038-.21-.036-.216-.03-.22-.03-.22-.024-.227-.02-.23-.016-.235-.014-.235-.01-.24-.004-.244-.001-.247.001-.248.004-.245.01-.242.014-.238.017-.234.019-.23.024-.228.03-.222.03-.22.036-.217.038-.212.043-.21.046-.206.05-.202.053-.198.057-.194.06-.192.065-.189.067-.184.072-.18.076-.179.077-.174.082-.17.085-.17.09-.161.093-.161.095-.157.1-.154.104-.151.106-.146.112-.144.115-.142.113-.136.122-.13.122-.128.124-.123.129-.119.128-.114.133-.11.135-.104.134-.102.14-.096.143-.093.145-.086.147-.085.15-.08.152-.074.155-.07.158-.067.16-.061.164-.058.167-.053.167-.052.173-.044.175-.04.177-.038.18-.032.184-.028.187-.025.187-.02.193-.014.195-.01.2-.007.2-.003.201.003.2.007.193.01.194.015.19.02.185.024.185.028.182.032.177.038.177.04.171.044.17.052.169.053.163.058.161.06.156.069.158.07.155.075.151.08.148.083.146.087.144.093.14.095.138.102.136.106.135.11.129.112.129.12.127.123.125.128.12.13.119.14.117.139.11.146.108.145.106.151.1.152.098.158.094.16.09.164.087.167.082.17.08.175.076.179.073.18.068.184.066.189.06.19.056.195.055.199.052.202.044.205.043.209.041.214.035.216.032.219.03.223.022.227.02.232.018.232.013.238.01.242.006.245.002.248-.002.247-.007.244-.009.24-.013.235-.017.233-.021.23-.022.227-.03.222-.032.219-.035.215-.04.212-.042.208-.046.206-.052.202-.055.197-.056.193-.06.192-.066.188-.068.183-.073.18-.075.178-.08.174-.083.17-.088.168-.089.164-.094.16-.098.156-.1.154-.106.15-.109.146-.11.144-.116.14-.119.138-.123.133-.122.126-.125.122-.131.12-.129.114-.135.109-.136.104-.137.104-.141.097-.144.092-.146.086-.148.085-.151.08-.155.074-.158.07-.156.067-.163.061-.161.058-.169.053-.17.052-.171.044-.177.04-.177.038-.182.032-.185.03-.186.023-.189.02-.194.016-.194.01-.199.007-.2.001-.202-.001zm-29.19-18.52l-.25.01-.247.011-.246.019-.24.023-.237.03-.235.036-.234.04-.226.045-.229.05-.221.057-.218.061-.217.068-.213.073-.209.078-.208.081-.2.09-.202.096-.195.097-.193.105-.19.112-.186.114-.182.123-.18.126-.173.132-.174.138-.168.142-.165.147-.161.153-.158.157-.153.164-.151.169-.148.172-.14.177-.136.179-.132.185-.13.19-.123.191-.116.197-.114.199-.11.204-.103.206-.1.212-.094.216-.089.218-.086.22-.08.227-.076.23-.072.232-.065.239-.062.241-.059.244-.051.246-.048.254-.043.253-.04.26-.036.263-.027.265-.026.27-.02.273-.016.277-.012.278-.007.285v.573l.007.281.012.278.016.273.02.274.026.266.027.262.036.261.04.257.043.252.048.251.051.247.059.243.062.24.065.236.072.23.075.23.081.225.086.224.09.216.094.217.1.21.102.208.11.202.114.202.116.195.124.194.127.188.132.186.138.182.14.179.146.174.151.169.153.165.158.16.16.153.163.15.166.143.17.14.174.132.178.129.179.12.185.118.186.111.19.106.193.101.195.095.201.09.203.083.206.08.21.073.212.068.215.06.218.059.22.051.223.046.228.04.229.035.231.031.237.022.239.02.24.011.244.01.246.002.207-.002.205-.003.202-.012.201-.011.194-.015.196-.02.194-.025.192-.026.19-.028.186-.035.184-.038.182-.043.182-.043.179-.048.176-.055.174-.055.17-.06.17-.064.166-.066.165-.07.162-.074.16-.078.157-.081.155-.086.154-.088.148-.093.15-.094.144-.101.144-.103.142-.106.138-.11.132-.115.135-.116.13-.117.126-.124.122-.125.12-.127.115-.13.114-.132.11-.135.104-.138.102-.14.098-.143.096-.146.089-.147.09-.15.083-.155.08-.154.077-.157.073-.162.07-.16.066-.166.064-.17.058-.168.057-.172.05-.174.05-.177.042-.18.043-.181.038-.186.036-.185.03-.187.027-.19.075-.605h-1.89l-.067.469-.024.144-.026.144-.03.14-.03.138-.034.136-.037.137-.039.132-.041.13-.045.13-.048.126-.05.124-.053.125-.055.12-.055.12-.062.117-.063.118-.065.114-.067.11-.07.112-.075.11-.077.107-.077.104-.08.103-.085.1-.084.1-.091.1-.09.095-.096.096-.094.093-.101.09-.102.089-.104.09-.107.084-.106.08-.108.08-.11.077-.11.07-.113.072-.115.07-.114.062-.117.062-.116.061-.12.056-.124.053-.122.05-.124.05-.125.044-.127.043-.129.042-.13.036-.13.035-.133.033-.136.028-.135.027-.14.023-.138.021-.141.019-.144.016-.143.01-.146.01-.147.007-.148.005-.153.001-.2-.001-.2-.007-.194-.01-.194-.016-.19-.02-.186-.024-.184-.03-.182-.03-.177-.039-.175-.04-.17-.044-.17-.05-.165-.055-.163-.058-.161-.06-.158-.067-.156-.071-.15-.075-.152-.08-.145-.084-.146-.086-.142-.092-.14-.097-.135-.1-.135-.106-.13-.11-.13-.114-.127-.118-.125-.124-.122-.126-.118-.132-.119-.137-.113-.141-.11-.144-.107-.146-.104-.15-.1-.155-.096-.155-.091-.16-.091-.165-.086-.167-.082-.17-.076-.173-.075-.177-.074-.182-.065-.185-.066-.188-.061-.19-.057-.194-.052-.198-.051-.2-.047-.208-.04-.208-.04-.21-.035-.216-.032-.22-.028-.22-.024-.227-.02-.23-.017-.235-.014-.235-.007-.24-.009-.244-.001-.247.001-.248.009-.245.007-.242.014-.238.017-.234.02-.23.024-.228.028-.222.032-.22.035-.217.04-.212.04-.21.047-.206.051-.202.052-.198.057-.194.061-.192.066-.189.067-.184.072-.18.075-.179.08-.174.078-.17.088-.17.089-.161.091-.161.096-.157.1-.154.104-.151.107-.146.11-.144.113-.142.119-.136.118-.13.122-.128.125-.123.127-.119.13-.114.13-.11.135-.104.136-.102.139-.096.142-.093.146-.086.145-.085.152-.08.153-.074.153-.07.158-.067.161-.061.163-.058.165-.053.17-.052.17-.044.177-.04.175-.038.182-.032.184-.028.185-.025.191-.02.194-.014.196-.01.197-.007.201-.003.288.005.28.015.277.024.264.034.263.044.257.053.248.063.242.071.237.08.231.09.225.102.218.11.212.117.21.13.202.136.195.15.19.153.178.164.172.17.16.176.15.182.145.187.13.2.125.2.117.21.105.218.098.222.087.232.08.238.07.247.061.255.114.566h1.959l-.093-.599-.03-.174-.035-.177-.036-.17-.04-.168-.044-.167-.045-.166-.053-.16-.052-.16-.056-.158-.06-.154-.064-.154-.065-.15-.07-.15-.073-.145-.075-.141-.08-.143-.082-.139-.087-.135-.088-.135-.093-.13-.096-.13-.1-.125-.1-.124-.105-.121-.108-.12-.11-.115-.117-.116-.117-.11-.122-.109-.123-.106-.13-.103-.13-.1-.13-.1-.134-.093-.14-.089-.136-.09-.141-.085-.144-.082-.148-.077-.148-.075-.147-.073-.155-.068-.154-.064-.157-.063-.16-.058-.16-.056-.162-.053-.167-.048-.168-.047-.17-.043-.17-.04-.172-.034-.176-.035-.177-.028-.182-.028-.182-.024-.184-.02-.185-.016-.19-.015-.188-.011-.192-.009-.196-.005-.196-.001-.252.003zm-37.633.002l-.271.011-.27.02-.263.027-.259.038-.257.044-.251.05-.249.06-.244.07-.238.074-.236.082-.231.093-.225.1-.222.107-.22.116-.213.124-.209.134-.203.14-.197.147-.194.152-.189.164-.182.167-.177.177-.173.184-.167.19-.161.2-.156.203-.151.213-.126.19-.056-.13-.109-.217-.113-.208-.125-.2-.13-.195-.142-.187-.147-.182-.156-.174-.165-.165-.174-.157-.18-.151-.19-.14-.195-.135-.202-.127-.21-.12-.214-.11-.22-.102-.227-.092-.231-.088-.237-.076-.246-.07-.249-.061-.254-.05-.26-.044-.269-.038-.268-.027-.278-.02-.283-.011-.287-.005-.264.003-.261.012-.256.018-.254.026-.249.032-.246.041-.24.045-.24.054-.232.063-.232.068-.225.078-.223.084-.22.09-.214.1-.21.105-.206.113-.2.119-.198.126-.19.134-.186.137-.182.148-.175.154-.172.157-.165.167-.163.174-.153.18-.101.123V5.107H0v19.385h1.966V13.74l.005-.32.007-.304.009-.293.01-.282.015-.271.016-.257.019-.246.022-.234.022-.223.028-.21.029-.2.03-.183.033-.176.035-.16.038-.15.037-.142.045-.142.048-.136.05-.136.055-.134.055-.13.06-.131.065-.126.069-.124.07-.123.074-.119.079-.118.08-.114.085-.114.087-.111.093-.11.091-.104.091-.097.096-.096.098-.093.1-.09.103-.089.108-.083.108-.08.113-.077.115-.076.119-.073.12-.07.124-.064.13-.065.127-.06.137-.056.138-.056.139-.05.142-.047.141-.045.144-.04.148-.038.15-.033.15-.032.153-.026.155-.023.158-.02.161-.017.16-.013.165-.007.168-.005.167-.004.183.004.18.007.18.01.17.017.17.02.166.028.164.028.16.033.156.04.151.043.15.048.146.053.146.056.139.06.137.066.13.068.131.074.124.078.118.083.117.084.108.086.107.091.097.095.097.096.092.1.086.105.08.11.078.11.074.118.069.117.065.125.06.127.034.08.035.082.03.085.031.084.031.088.03.09.029.092.024.091.025.095.023.099.024.098.02.097.021.105.017.104.016.104.017.11.015.115.014.123.012.129.012.137.012.145.01.15.01.162.01.168.006.175.009.18.003.191.004.197.005.205.003.212v12.026h1.911V14.07l.002-.33.003-.32.005-.304.01-.293.013-.282.013-.271.018-.257.019-.246.022-.234.024-.222.026-.21.029-.2.03-.182.035-.176.034-.16.04-.15.04-.142.044-.142.048-.138.052-.136.055-.134.056-.132.06-.13.064-.127.067-.124.07-.124.072-.12.078-.117.079-.114.084-.113.084-.112.09-.108.088-.1.095-.097.098-.098.1-.092.102-.091.107-.087.106-.084.114-.081.115-.078.115-.074.12-.075.122-.068.125-.064.13-.063.131-.063.136-.057.137-.056.139-.05.14-.047.143-.045.143-.04.146-.038.147-.033.152-.032.15-.026.155-.023.156-.02.157-.017.158-.013.161-.007.163-.005.167-.004.185.004.184.007.178.01.174.017.171.02.17.028.164.028.16.033.157.04.155.043.15.05.145.05.144.057.14.06.137.066.134.068.128.074.124.078.12.083.115.084.108.086.107.091.101.095.095.096.09.1.086.105.083.11.077.11.072.118.07.117.062.125.062.124.031.074.031.083.03.086.03.085.03.089.027.088.027.092.024.095.024.094.024.098.02.1.022.1.018.103.018.106.015.104.016.11.017.115.013.123.014.129.012.137.01.145.01.15.011.162.009.168.008.175.004.18.008.191.005.197.002.205.002.212.002.22V24.493h1.965V11.542l-.005-.21-.007-.204-.01-.2-.015-.2-.017-.196-.021-.192-.024-.188-.024-.19-.031-.181-.033-.18-.036-.18-.04-.173-.04-.173-.049-.168-.048-.164-.053-.164-.055-.158-.058-.157-.062-.154-.065-.149-.07-.147-.071-.144-.076-.141-.079-.137-.082-.135-.086-.13-.089-.13-.091-.124-.096-.12-.1-.118-.101-.114-.105-.113-.11-.11-.11-.102-.116-.103-.117-.096-.122-.096-.125-.09-.127-.085-.13-.085-.137-.079-.135-.076-.14-.071-.143-.07-.145-.063-.149-.063-.15-.058-.154-.056-.158-.048-.158-.048-.165-.043-.165-.04-.168-.036-.168-.033-.175-.028-.177-.027-.177-.023-.182-.017-.185-.016-.186-.012-.19-.01-.193-.005-.197-.001-.273.005zm76.049 19.992h24.806L107.838 4.983 95.423 24.715z"/>
</svg>
