<?xml version="1.0" encoding="utf-8"?>
<!-- Generator: Adobe Illustrator 26.0.2, SVG Export Plug-In . SVG Version: 6.00 Build 0)  -->
<svg version="1.1" id="Ebene_1" xmlns="http://www.w3.org/2000/svg" xmlns:xlink="http://www.w3.org/1999/xlink" x="0px" y="0px"
	 viewBox="0 0 129 32" style="enable-background:new 0 0 129 32;" xml:space="preserve">
<style type="text/css">
	.st0{fill-rule:evenodd;clip-rule:evenodd;fill:#FFE500;}
</style>
<path class="st0" d="M17.3,32l4.9-15.1V32h7.4V8h-10l-4.8,12L10.1,8h-10v24h7.4V16.9l5,15.1H17.3z M96.6,22.7
	c2.3-0.2,4.6-1.8,4.6-4.4v-5.4v-0.5c-0.3-2.7-2.3-4.2-4.6-4.4h-19v24H85v-9.3h2.9l4.8,9.3h8.5l-5.7-9.3H96.6z M94.6,16.4
	c0,0.5-0.1,1-1,1H85v-4.7h8.6c1,0,1,0.7,1,1.1V16.4z M51.8,12.7V8H32.6v24H52v-4.7H40v-5.1h11.8v-4.7H40v-4.8H51.8z M61,12.7h-7V8
	h21.4v4.7h-7V32H61V12.7z M124.5,8h-15.7c-2.4,0.2-4.3,1.4-4.6,4.1v15.5c0.3,2.7,2.3,4.2,4.6,4.3h15.7c2.4-0.2,4.3-1.6,4.6-4.3V12.1
	C128.8,9.4,126.8,8.2,124.5,8z M121.7,26.2c0,0.3-0.1,1-1,1.1h-8c-0.9-0.1-1.1-0.8-1.1-1.1V13.7c0-0.3,0.2-0.8,1.1-0.9h8
	c0.9,0.1,1,0.7,1,0.9V26.2z"/>
</svg>
